<svg width="233" height="19" viewBox="0 0 233 19" fill="none" xmlns="http://www.w3.org/2000/svg">
<path d="M6.432 18L0.408 1.08H4.224L8.616 14.136H7.584L12.216 1.08H14.904L19.344 14.136H18.456L22.92 1.08H26.52L20.448 18H17.424L13.176 5.976H13.752L9.456 18H6.432ZM28.2748 18V1.08H31.8988V8.424H31.5628C31.9308 7.64 32.4748 7.04 33.1948 6.624C33.9308 6.192 34.7628 5.976 35.6908 5.976C36.6348 5.976 37.4108 6.16 38.0188 6.528C38.6268 6.88 39.0828 7.424 39.3868 8.16C39.6908 8.88 39.8428 9.8 39.8428 10.92V18H36.2188V11.088C36.2188 10.544 36.1468 10.104 36.0028 9.768C35.8748 9.416 35.6748 9.168 35.4028 9.024C35.1468 8.864 34.8188 8.784 34.4188 8.784C33.9068 8.784 33.4588 8.896 33.0748 9.12C32.7068 9.328 32.4188 9.632 32.2108 10.032C32.0028 10.432 31.8988 10.896 31.8988 11.424V18H28.2748ZM48.6683 18.264C47.2763 18.264 46.0763 18.016 45.0683 17.52C44.0763 17.008 43.3083 16.296 42.7643 15.384C42.2363 14.456 41.9723 13.368 41.9723 12.12C41.9723 10.904 42.2283 9.84 42.7402 8.928C43.2523 8 43.9643 7.28 44.8763 6.768C45.8043 6.24 46.8523 5.976 48.0203 5.976C49.1723 5.976 50.1643 6.224 50.9963 6.72C51.8283 7.2 52.4683 7.888 52.9163 8.784C53.3803 9.68 53.6123 10.744 53.6123 11.976V12.888H44.9483V11.016H50.9963L50.6123 11.352C50.6123 10.376 50.3963 9.64 49.9643 9.144C49.5483 8.632 48.9483 8.376 48.1643 8.376C47.5723 8.376 47.0683 8.512 46.6523 8.784C46.2363 9.056 45.9163 9.448 45.6923 9.96C45.4683 10.472 45.3563 11.088 45.3563 11.808V12C45.3563 12.816 45.4763 13.488 45.7163 14.016C45.9723 14.528 46.3483 14.912 46.8443 15.168C47.3563 15.424 47.9883 15.552 48.7403 15.552C49.3803 15.552 50.0283 15.456 50.6843 15.264C51.3403 15.072 51.9323 14.776 52.4603 14.376L53.4203 16.8C52.8283 17.248 52.1003 17.608 51.2363 17.88C50.3883 18.136 49.5323 18.264 48.6683 18.264ZM55.7201 18V6.216H59.2721V9.096H59.0321C59.2241 8.136 59.6401 7.4 60.2801 6.888C60.9361 6.36 61.8001 6.056 62.8721 5.976L63.9281 5.904L64.1441 8.952L62.1041 9.168C61.1921 9.248 60.5121 9.512 60.0641 9.96C59.6321 10.408 59.4161 11.056 59.4161 11.904V18H55.7201ZM71.5198 18.264C70.1278 18.264 68.9278 18.016 67.9198 17.52C66.9278 17.008 66.1598 16.296 65.6158 15.384C65.0878 14.456 64.8238 13.368 64.8238 12.12C64.8238 10.904 65.0798 9.84 65.5918 8.928C66.1038 8 66.8158 7.28 67.7278 6.768C68.6558 6.24 69.7038 5.976 70.8718 5.976C72.0238 5.976 73.0158 6.224 73.8478 6.72C74.6798 7.2 75.3198 7.888 75.7678 8.784C76.2318 9.68 76.4638 10.744 76.4638 11.976V12.888H67.7998V11.016H73.8478L73.4638 11.352C73.4638 10.376 73.2478 9.64 72.8158 9.144C72.3998 8.632 71.7998 8.376 71.0158 8.376C70.4238 8.376 69.9198 8.512 69.5038 8.784C69.0878 9.056 68.7678 9.448 68.5438 9.96C68.3198 10.472 68.2078 11.088 68.2078 11.808V12C68.2078 12.816 68.3278 13.488 68.5678 14.016C68.8238 14.528 69.1998 14.912 69.6958 15.168C70.2078 15.424 70.8398 15.552 71.5918 15.552C72.2318 15.552 72.8798 15.456 73.5358 15.264C74.1918 15.072 74.7838 14.776 75.3118 14.376L76.2718 16.8C75.6798 17.248 74.9518 17.608 74.0878 17.88C73.2398 18.136 72.3838 18.264 71.5198 18.264ZM85.1074 3.936V0.551999H89.0194V3.936H85.1074ZM85.2514 18V6.216H88.8754V18H85.2514ZM91.6733 18V6.216H95.2253V8.424H94.9613C95.3293 7.64 95.8733 7.04 96.5933 6.624C97.3293 6.192 98.1613 5.976 99.0893 5.976C100.033 5.976 100.809 6.16 101.417 6.528C102.025 6.88 102.481 7.424 102.785 8.16C103.089 8.88 103.241 9.8 103.241 10.92V18H99.6173V11.088C99.6173 10.544 99.5453 10.104 99.4013 9.768C99.2733 9.416 99.0733 9.168 98.8013 9.024C98.5453 8.864 98.2173 8.784 97.8173 8.784C97.3053 8.784 96.8573 8.896 96.4733 9.12C96.1053 9.328 95.8173 9.632 95.6093 10.032C95.4013 10.432 95.2973 10.896 95.2973 11.424V18H91.6733ZM118.41 18.264C116.73 18.264 115.482 17.856 114.666 17.04C113.85 16.224 113.442 15.024 113.442 13.44V8.928H111.21V6.216H113.442V2.76H117.066V6.216H120.546V8.928H117.066V13.296C117.066 13.968 117.218 14.472 117.522 14.808C117.842 15.144 118.346 15.312 119.034 15.312C119.242 15.312 119.458 15.288 119.682 15.24C119.922 15.192 120.178 15.128 120.45 15.048L120.978 17.688C120.642 17.864 120.242 18 119.778 18.096C119.314 18.208 118.858 18.264 118.41 18.264ZM122.33 18V1.08H125.954V8.424H125.618C125.986 7.64 126.53 7.04 127.25 6.624C127.986 6.192 128.818 5.976 129.746 5.976C130.69 5.976 131.466 6.16 132.074 6.528C132.682 6.88 133.138 7.424 133.442 8.16C133.746 8.88 133.898 9.8 133.898 10.92V18H130.274V11.088C130.274 10.544 130.202 10.104 130.058 9.768C129.93 9.416 129.73 9.168 129.458 9.024C129.202 8.864 128.874 8.784 128.474 8.784C127.962 8.784 127.514 8.896 127.13 9.12C126.762 9.328 126.474 9.632 126.266 10.032C126.058 10.432 125.954 10.896 125.954 11.424V18H122.33ZM142.723 18.264C141.331 18.264 140.131 18.016 139.123 17.52C138.131 17.008 137.363 16.296 136.819 15.384C136.291 14.456 136.027 13.368 136.027 12.12C136.027 10.904 136.283 9.84 136.795 8.928C137.307 8 138.019 7.28 138.931 6.768C139.859 6.24 140.907 5.976 142.075 5.976C143.227 5.976 144.219 6.224 145.051 6.72C145.883 7.2 146.523 7.888 146.971 8.784C147.435 9.68 147.667 10.744 147.667 11.976V12.888H139.003V11.016H145.051L144.667 11.352C144.667 10.376 144.451 9.64 144.019 9.144C143.603 8.632 143.003 8.376 142.219 8.376C141.627 8.376 141.123 8.512 140.707 8.784C140.291 9.056 139.971 9.448 139.747 9.96C139.523 10.472 139.411 11.088 139.411 11.808V12C139.411 12.816 139.531 13.488 139.771 14.016C140.027 14.528 140.403 14.912 140.899 15.168C141.411 15.424 142.043 15.552 142.795 15.552C143.435 15.552 144.083 15.456 144.739 15.264C145.395 15.072 145.987 14.776 146.515 14.376L147.475 16.8C146.883 17.248 146.155 17.608 145.291 17.88C144.443 18.136 143.587 18.264 142.723 18.264ZM159.791 18L154.99 6.216H158.663L161.759 14.496H161.207L164.279 6.216H166.679L169.727 14.496H169.271L172.295 6.216H175.775L171.023 18H167.951L164.567 9.264H166.127L162.839 18H159.791ZM182.509 18.264C181.245 18.264 180.141 18.016 179.197 17.52C178.269 17.024 177.549 16.312 177.037 15.384C176.525 14.456 176.269 13.36 176.269 12.096C176.269 10.832 176.525 9.744 177.037 8.832C177.549 7.92 178.269 7.216 179.197 6.72C180.141 6.224 181.245 5.976 182.509 5.976C183.773 5.976 184.869 6.224 185.797 6.72C186.741 7.216 187.469 7.928 187.981 8.856C188.509 9.768 188.773 10.848 188.773 12.096C188.773 13.36 188.509 14.456 187.981 15.384C187.469 16.312 186.741 17.024 185.797 17.52C184.869 18.016 183.773 18.264 182.509 18.264ZM182.509 15.552C183.293 15.552 183.925 15.272 184.405 14.712C184.885 14.136 185.125 13.264 185.125 12.096C185.125 10.928 184.885 10.072 184.405 9.528C183.925 8.968 183.293 8.688 182.509 8.688C181.741 8.688 181.117 8.968 180.637 9.528C180.157 10.072 179.917 10.928 179.917 12.096C179.917 13.264 180.157 14.136 180.637 14.712C181.117 15.272 181.741 15.552 182.509 15.552ZM190.978 18V6.216H194.53V9.096H194.29C194.482 8.136 194.898 7.4 195.538 6.888C196.194 6.36 197.058 6.056 198.13 5.976L199.186 5.904L199.402 8.952L197.362 9.168C196.45 9.248 195.77 9.512 195.322 9.96C194.89 10.408 194.674 11.056 194.674 11.904V18H190.978ZM205.261 18.264C203.741 18.264 202.629 17.872 201.925 17.088C201.221 16.288 200.869 15.104 200.869 13.536V1.08H204.493V13.392C204.493 13.792 204.557 14.144 204.685 14.448C204.813 14.736 204.997 14.952 205.237 15.096C205.493 15.24 205.813 15.312 206.197 15.312C206.357 15.312 206.525 15.304 206.701 15.288C206.877 15.272 207.045 15.24 207.205 15.192L207.157 18C206.853 18.08 206.541 18.144 206.221 18.192C205.917 18.24 205.597 18.264 205.261 18.264ZM213.328 18.264C212.304 18.264 211.4 18.016 210.616 17.52C209.848 17.024 209.248 16.312 208.816 15.384C208.384 14.456 208.168 13.36 208.168 12.096C208.168 10.832 208.384 9.744 208.816 8.832C209.248 7.92 209.848 7.216 210.616 6.72C211.4 6.224 212.304 5.976 213.328 5.976C214.256 5.976 215.072 6.2 215.776 6.648C216.496 7.096 216.984 7.68 217.24 8.4H216.976V1.08H220.6V18H217.048V15.672H217.264C217.04 16.456 216.56 17.088 215.824 17.568C215.104 18.032 214.272 18.264 213.328 18.264ZM214.408 15.552C215.192 15.552 215.824 15.272 216.304 14.712C216.784 14.136 217.024 13.264 217.024 12.096C217.024 10.928 216.784 10.072 216.304 9.528C215.824 8.968 215.192 8.688 214.408 8.688C213.64 8.688 213.016 8.968 212.536 9.528C212.056 10.072 211.816 10.928 211.816 12.096C211.816 13.264 212.056 14.136 212.536 14.712C213.016 15.272 213.64 15.552 214.408 15.552ZM226.416 12.648V11.52C226.416 11.056 226.472 10.616 226.584 10.2C226.696 9.768 226.872 9.344 227.112 8.928C227.368 8.512 227.704 8.088 228.12 7.656C228.408 7.32 228.64 7.032 228.816 6.792C229.008 6.536 229.136 6.296 229.2 6.072C229.28 5.832 229.32 5.592 229.32 5.352C229.32 5.048 229.248 4.792 229.104 4.584C228.96 4.376 228.744 4.216 228.456 4.104C228.168 3.976 227.824 3.912 227.424 3.912C226.672 3.912 225.944 4.048 225.24 4.32C224.552 4.592 223.88 4.992 223.224 5.52L222.048 2.784C222.512 2.368 223.048 2.016 223.656 1.728C224.28 1.44 224.936 1.216 225.624 1.056C226.312 0.895999 227 0.816 227.688 0.816C228.744 0.816 229.672 0.992 230.472 1.344C231.272 1.696 231.888 2.176 232.32 2.784C232.768 3.392 232.992 4.104 232.992 4.92C232.992 5.416 232.92 5.88 232.776 6.312C232.632 6.744 232.4 7.176 232.08 7.608C231.76 8.024 231.32 8.464 230.76 8.928C230.264 9.344 229.872 9.728 229.584 10.08C229.296 10.416 229.088 10.736 228.96 11.04C228.832 11.328 228.744 11.616 228.696 11.904L228.576 12.648H226.416ZM225.552 18V14.16H229.44V18H225.552Z" fill="#111517"/>
</svg>
